<mxfile host="app.diagrams.net" agent="Mozilla/5.0 (Windows NT 10.0; Win64; x64) AppleWebKit/537.36 (KHTML, like Gecko) Chrome/128.0.0.0 Safari/537.36" version="24.7.14">
  <diagram id="a45cf8ec-cd66-6f27-3ac3-be6e809c9e4a" name="Page-1">
    <mxGraphModel dx="637" dy="343" grid="1" gridSize="10" guides="1" tooltips="1" connect="1" arrows="1" fold="1" page="1" pageScale="1" pageWidth="827" pageHeight="1169" background="none" math="0" shadow="0">
      <root>
        <mxCell id="0" />
        <mxCell id="1" parent="0" />
        <mxCell id="yCNXlP83xQap65_kqkha-175" value="" style="verticalLabelPosition=bottom;sketch=0;aspect=fixed;html=1;verticalAlign=top;strokeColor=none;align=center;outlineConnect=0;shape=mxgraph.citrix.chassis;flipV=0;flipH=1;" vertex="1" parent="1">
          <mxGeometry x="160" y="410" width="40.71" height="52.55" as="geometry" />
        </mxCell>
        <mxCell id="yCNXlP83xQap65_kqkha-177" value="" style="endArrow=none;html=1;rounded=0;fillColor=#e51400;strokeColor=#B20000;" edge="1" parent="1">
          <mxGeometry width="50" height="50" relative="1" as="geometry">
            <mxPoint x="210" y="400" as="sourcePoint" />
            <mxPoint x="210" y="440" as="targetPoint" />
          </mxGeometry>
        </mxCell>
        <mxCell id="yCNXlP83xQap65_kqkha-183" style="rounded=0;orthogonalLoop=1;jettySize=auto;html=1;shape=link;width=-1.71875;fillColor=#e51400;strokeColor=#B20000;" edge="1" parent="1" source="yCNXlP83xQap65_kqkha-178">
          <mxGeometry relative="1" as="geometry">
            <mxPoint x="200.00000000000006" y="436.015" as="targetPoint" />
            <mxPoint x="210.00000000000006" y="436.036875" as="sourcePoint" />
          </mxGeometry>
        </mxCell>
        <mxCell id="yCNXlP83xQap65_kqkha-178" value="" style="verticalLabelPosition=bottom;sketch=0;aspect=fixed;html=1;verticalAlign=top;strokeColor=none;align=center;outlineConnect=0;shape=mxgraph.citrix.chassis;flipV=0;flipH=0;" vertex="1" parent="1">
          <mxGeometry x="220" y="410" width="40.71" height="52.55" as="geometry" />
        </mxCell>
        <mxCell id="yCNXlP83xQap65_kqkha-184" value="" style="verticalLabelPosition=bottom;sketch=0;aspect=fixed;html=1;verticalAlign=top;strokeColor=none;align=center;outlineConnect=0;shape=mxgraph.citrix.chassis;flipV=0;flipH=1;" vertex="1" parent="1">
          <mxGeometry x="160" y="350" width="40.71" height="52.55" as="geometry" />
        </mxCell>
        <mxCell id="yCNXlP83xQap65_kqkha-185" value="" style="endArrow=none;html=1;rounded=0;fillColor=#e51400;strokeColor=#B20000;" edge="1" parent="1">
          <mxGeometry width="50" height="50" relative="1" as="geometry">
            <mxPoint x="210" y="340" as="sourcePoint" />
            <mxPoint x="210" y="400" as="targetPoint" />
          </mxGeometry>
        </mxCell>
        <mxCell id="yCNXlP83xQap65_kqkha-186" style="rounded=0;orthogonalLoop=1;jettySize=auto;html=1;shape=link;width=-1.71875;fillColor=#e51400;strokeColor=#B20000;" edge="1" parent="1" source="yCNXlP83xQap65_kqkha-187">
          <mxGeometry relative="1" as="geometry">
            <mxPoint x="200.00000000000006" y="376.015" as="targetPoint" />
            <mxPoint x="210.00000000000006" y="376.036875" as="sourcePoint" />
          </mxGeometry>
        </mxCell>
        <mxCell id="yCNXlP83xQap65_kqkha-187" value="" style="verticalLabelPosition=bottom;sketch=0;aspect=fixed;html=1;verticalAlign=top;strokeColor=none;align=center;outlineConnect=0;shape=mxgraph.citrix.chassis;flipV=0;flipH=0;" vertex="1" parent="1">
          <mxGeometry x="220" y="350" width="40.71" height="52.55" as="geometry" />
        </mxCell>
        <mxCell id="yCNXlP83xQap65_kqkha-188" value="" style="verticalLabelPosition=bottom;sketch=0;aspect=fixed;html=1;verticalAlign=top;strokeColor=none;align=center;outlineConnect=0;shape=mxgraph.citrix.chassis;flipV=0;flipH=1;" vertex="1" parent="1">
          <mxGeometry x="160" y="290" width="40.71" height="52.55" as="geometry" />
        </mxCell>
        <mxCell id="yCNXlP83xQap65_kqkha-189" value="" style="endArrow=none;html=1;rounded=0;fillColor=#e51400;strokeColor=#B20000;" edge="1" parent="1">
          <mxGeometry width="50" height="50" relative="1" as="geometry">
            <mxPoint x="210" y="280" as="sourcePoint" />
            <mxPoint x="210" y="340" as="targetPoint" />
          </mxGeometry>
        </mxCell>
        <mxCell id="yCNXlP83xQap65_kqkha-190" style="rounded=0;orthogonalLoop=1;jettySize=auto;html=1;shape=link;width=-1.71875;fillColor=#e51400;strokeColor=#B20000;" edge="1" parent="1" source="yCNXlP83xQap65_kqkha-191">
          <mxGeometry relative="1" as="geometry">
            <mxPoint x="200.00000000000006" y="316.015" as="targetPoint" />
            <mxPoint x="210.00000000000006" y="316.036875" as="sourcePoint" />
          </mxGeometry>
        </mxCell>
        <mxCell id="yCNXlP83xQap65_kqkha-191" value="" style="verticalLabelPosition=bottom;sketch=0;aspect=fixed;html=1;verticalAlign=top;strokeColor=none;align=center;outlineConnect=0;shape=mxgraph.citrix.chassis;flipV=0;flipH=0;" vertex="1" parent="1">
          <mxGeometry x="220" y="290" width="40.71" height="52.55" as="geometry" />
        </mxCell>
        <mxCell id="yCNXlP83xQap65_kqkha-192" value="" style="verticalLabelPosition=bottom;sketch=0;aspect=fixed;html=1;verticalAlign=top;strokeColor=none;align=center;outlineConnect=0;shape=mxgraph.citrix.chassis;flipV=0;flipH=1;" vertex="1" parent="1">
          <mxGeometry x="160" y="230" width="40.71" height="52.55" as="geometry" />
        </mxCell>
        <mxCell id="yCNXlP83xQap65_kqkha-193" value="" style="endArrow=none;html=1;rounded=0;fillColor=#e51400;strokeColor=#B20000;" edge="1" parent="1">
          <mxGeometry width="50" height="50" relative="1" as="geometry">
            <mxPoint x="210" y="250" as="sourcePoint" />
            <mxPoint x="210" y="280" as="targetPoint" />
          </mxGeometry>
        </mxCell>
        <mxCell id="yCNXlP83xQap65_kqkha-194" style="rounded=0;orthogonalLoop=1;jettySize=auto;html=1;shape=link;width=-1.71875;fillColor=#e51400;strokeColor=#B20000;" edge="1" parent="1" source="yCNXlP83xQap65_kqkha-195">
          <mxGeometry relative="1" as="geometry">
            <mxPoint x="200.00000000000006" y="256.015" as="targetPoint" />
            <mxPoint x="210.00000000000006" y="256.036875" as="sourcePoint" />
          </mxGeometry>
        </mxCell>
        <mxCell id="yCNXlP83xQap65_kqkha-195" value="" style="verticalLabelPosition=bottom;sketch=0;aspect=fixed;html=1;verticalAlign=top;strokeColor=none;align=center;outlineConnect=0;shape=mxgraph.citrix.chassis;flipV=0;flipH=0;" vertex="1" parent="1">
          <mxGeometry x="220" y="230" width="40.71" height="52.55" as="geometry" />
        </mxCell>
        <mxCell id="yCNXlP83xQap65_kqkha-205" value="" style="endArrow=none;html=1;rounded=0;fillColor=#b1ddf0;strokeColor=#10739e;" edge="1" parent="1">
          <mxGeometry width="50" height="50" relative="1" as="geometry">
            <mxPoint x="270" y="440" as="sourcePoint" />
            <mxPoint x="270" y="250" as="targetPoint" />
          </mxGeometry>
        </mxCell>
        <mxCell id="yCNXlP83xQap65_kqkha-207" value="" style="endArrow=none;html=1;rounded=0;fillColor=#b1ddf0;strokeColor=#10739e;shape=link;width=-1.7741935483870979;" edge="1" parent="1" source="yCNXlP83xQap65_kqkha-191">
          <mxGeometry width="50" height="50" relative="1" as="geometry">
            <mxPoint x="280" y="320" as="sourcePoint" />
            <mxPoint x="270" y="316" as="targetPoint" />
          </mxGeometry>
        </mxCell>
        <mxCell id="yCNXlP83xQap65_kqkha-209" value="" style="endArrow=none;html=1;rounded=0;fillColor=#b1ddf0;strokeColor=#10739e;shape=link;width=-1.7741935483870979;" edge="1" parent="1">
          <mxGeometry width="50" height="50" relative="1" as="geometry">
            <mxPoint x="260.71" y="376.19" as="sourcePoint" />
            <mxPoint x="269.71" y="376.19" as="targetPoint" />
          </mxGeometry>
        </mxCell>
        <mxCell id="yCNXlP83xQap65_kqkha-210" value="" style="endArrow=none;html=1;rounded=0;fillColor=#b1ddf0;strokeColor=#10739e;shape=link;width=-1.7741935483870979;" edge="1" parent="1">
          <mxGeometry width="50" height="50" relative="1" as="geometry">
            <mxPoint x="260.71" y="256.19" as="sourcePoint" />
            <mxPoint x="269.71" y="256.19" as="targetPoint" />
          </mxGeometry>
        </mxCell>
        <mxCell id="yCNXlP83xQap65_kqkha-211" value="" style="endArrow=none;html=1;rounded=0;fillColor=#b1ddf0;strokeColor=#10739e;shape=link;width=-1.7741935483870979;" edge="1" parent="1">
          <mxGeometry width="50" height="50" relative="1" as="geometry">
            <mxPoint x="260.71" y="436.04" as="sourcePoint" />
            <mxPoint x="269.71" y="436.04" as="targetPoint" />
          </mxGeometry>
        </mxCell>
        <mxCell id="yCNXlP83xQap65_kqkha-212" value="" style="endArrow=none;html=1;rounded=0;fillColor=#b1ddf0;strokeColor=#10739e;shape=link;width=-1.7741935483870979;" edge="1" parent="1">
          <mxGeometry width="50" height="50" relative="1" as="geometry">
            <mxPoint x="150" y="436" as="sourcePoint" />
            <mxPoint x="160" y="436.22" as="targetPoint" />
          </mxGeometry>
        </mxCell>
        <mxCell id="yCNXlP83xQap65_kqkha-213" value="" style="endArrow=none;html=1;rounded=0;fillColor=#b1ddf0;strokeColor=#10739e;shape=link;width=-1.7741935483870979;" edge="1" parent="1">
          <mxGeometry width="50" height="50" relative="1" as="geometry">
            <mxPoint x="150" y="376" as="sourcePoint" />
            <mxPoint x="160" y="376.04" as="targetPoint" />
          </mxGeometry>
        </mxCell>
        <mxCell id="yCNXlP83xQap65_kqkha-214" value="" style="endArrow=none;html=1;rounded=0;fillColor=#b1ddf0;strokeColor=#10739e;shape=link;width=-1.7741935483870979;" edge="1" parent="1">
          <mxGeometry width="50" height="50" relative="1" as="geometry">
            <mxPoint x="150" y="316" as="sourcePoint" />
            <mxPoint x="160" y="316.04" as="targetPoint" />
          </mxGeometry>
        </mxCell>
        <mxCell id="yCNXlP83xQap65_kqkha-215" value="" style="endArrow=none;html=1;rounded=0;fillColor=#b1ddf0;strokeColor=#10739e;shape=link;width=-1.7741935483870979;" edge="1" parent="1">
          <mxGeometry width="50" height="50" relative="1" as="geometry">
            <mxPoint x="150" y="256" as="sourcePoint" />
            <mxPoint x="160" y="256.03999999999996" as="targetPoint" />
          </mxGeometry>
        </mxCell>
        <mxCell id="yCNXlP83xQap65_kqkha-216" value="" style="endArrow=none;html=1;rounded=0;fillColor=#b1ddf0;strokeColor=#10739e;" edge="1" parent="1">
          <mxGeometry width="50" height="50" relative="1" as="geometry">
            <mxPoint x="150" y="440" as="sourcePoint" />
            <mxPoint x="150" y="250" as="targetPoint" />
          </mxGeometry>
        </mxCell>
        <mxCell id="yCNXlP83xQap65_kqkha-217" value="" style="verticalLabelPosition=bottom;sketch=0;aspect=fixed;html=1;verticalAlign=top;strokeColor=none;align=center;outlineConnect=0;shape=mxgraph.citrix.chassis;flipV=0;flipH=1;" vertex="1" parent="1">
          <mxGeometry x="303" y="410" width="40.71" height="52.55" as="geometry" />
        </mxCell>
        <mxCell id="yCNXlP83xQap65_kqkha-218" value="" style="endArrow=none;html=1;rounded=0;fillColor=#e51400;strokeColor=#B20000;" edge="1" parent="1">
          <mxGeometry width="50" height="50" relative="1" as="geometry">
            <mxPoint x="353" y="400" as="sourcePoint" />
            <mxPoint x="353" y="440" as="targetPoint" />
          </mxGeometry>
        </mxCell>
        <mxCell id="yCNXlP83xQap65_kqkha-219" style="rounded=0;orthogonalLoop=1;jettySize=auto;html=1;shape=link;width=-1.71875;fillColor=#e51400;strokeColor=#B20000;" edge="1" parent="1" source="yCNXlP83xQap65_kqkha-220">
          <mxGeometry relative="1" as="geometry">
            <mxPoint x="343.00000000000006" y="436.015" as="targetPoint" />
            <mxPoint x="353.00000000000006" y="436.036875" as="sourcePoint" />
          </mxGeometry>
        </mxCell>
        <mxCell id="yCNXlP83xQap65_kqkha-220" value="" style="verticalLabelPosition=bottom;sketch=0;aspect=fixed;html=1;verticalAlign=top;strokeColor=none;align=center;outlineConnect=0;shape=mxgraph.citrix.chassis;flipV=0;flipH=0;" vertex="1" parent="1">
          <mxGeometry x="363" y="410" width="40.71" height="52.55" as="geometry" />
        </mxCell>
        <mxCell id="yCNXlP83xQap65_kqkha-221" value="" style="verticalLabelPosition=bottom;sketch=0;aspect=fixed;html=1;verticalAlign=top;strokeColor=none;align=center;outlineConnect=0;shape=mxgraph.citrix.chassis;flipV=0;flipH=1;" vertex="1" parent="1">
          <mxGeometry x="303" y="350" width="40.71" height="52.55" as="geometry" />
        </mxCell>
        <mxCell id="yCNXlP83xQap65_kqkha-222" value="" style="endArrow=none;html=1;rounded=0;fillColor=#e51400;strokeColor=#B20000;" edge="1" parent="1">
          <mxGeometry width="50" height="50" relative="1" as="geometry">
            <mxPoint x="353" y="340" as="sourcePoint" />
            <mxPoint x="353" y="400" as="targetPoint" />
          </mxGeometry>
        </mxCell>
        <mxCell id="yCNXlP83xQap65_kqkha-223" style="rounded=0;orthogonalLoop=1;jettySize=auto;html=1;shape=link;width=-1.71875;fillColor=#e51400;strokeColor=#B20000;" edge="1" parent="1" source="yCNXlP83xQap65_kqkha-224">
          <mxGeometry relative="1" as="geometry">
            <mxPoint x="343.00000000000006" y="376.015" as="targetPoint" />
            <mxPoint x="353.00000000000006" y="376.036875" as="sourcePoint" />
          </mxGeometry>
        </mxCell>
        <mxCell id="yCNXlP83xQap65_kqkha-224" value="" style="verticalLabelPosition=bottom;sketch=0;aspect=fixed;html=1;verticalAlign=top;strokeColor=none;align=center;outlineConnect=0;shape=mxgraph.citrix.chassis;flipV=0;flipH=0;" vertex="1" parent="1">
          <mxGeometry x="363" y="350" width="40.71" height="52.55" as="geometry" />
        </mxCell>
        <mxCell id="yCNXlP83xQap65_kqkha-225" value="" style="verticalLabelPosition=bottom;sketch=0;aspect=fixed;html=1;verticalAlign=top;strokeColor=none;align=center;outlineConnect=0;shape=mxgraph.citrix.chassis;flipV=0;flipH=1;" vertex="1" parent="1">
          <mxGeometry x="303" y="290" width="40.71" height="52.55" as="geometry" />
        </mxCell>
        <mxCell id="yCNXlP83xQap65_kqkha-226" value="" style="endArrow=none;html=1;rounded=0;fillColor=#e51400;strokeColor=#B20000;" edge="1" parent="1">
          <mxGeometry width="50" height="50" relative="1" as="geometry">
            <mxPoint x="353" y="280" as="sourcePoint" />
            <mxPoint x="353" y="340" as="targetPoint" />
          </mxGeometry>
        </mxCell>
        <mxCell id="yCNXlP83xQap65_kqkha-227" style="rounded=0;orthogonalLoop=1;jettySize=auto;html=1;shape=link;width=-1.71875;fillColor=#e51400;strokeColor=#B20000;" edge="1" parent="1" source="yCNXlP83xQap65_kqkha-228">
          <mxGeometry relative="1" as="geometry">
            <mxPoint x="343.00000000000006" y="316.015" as="targetPoint" />
            <mxPoint x="353.00000000000006" y="316.036875" as="sourcePoint" />
          </mxGeometry>
        </mxCell>
        <mxCell id="yCNXlP83xQap65_kqkha-228" value="" style="verticalLabelPosition=bottom;sketch=0;aspect=fixed;html=1;verticalAlign=top;strokeColor=none;align=center;outlineConnect=0;shape=mxgraph.citrix.chassis;flipV=0;flipH=0;" vertex="1" parent="1">
          <mxGeometry x="363" y="290" width="40.71" height="52.55" as="geometry" />
        </mxCell>
        <mxCell id="yCNXlP83xQap65_kqkha-229" value="" style="verticalLabelPosition=bottom;sketch=0;aspect=fixed;html=1;verticalAlign=top;strokeColor=none;align=center;outlineConnect=0;shape=mxgraph.citrix.chassis;flipV=0;flipH=1;" vertex="1" parent="1">
          <mxGeometry x="303" y="230" width="40.71" height="52.55" as="geometry" />
        </mxCell>
        <mxCell id="yCNXlP83xQap65_kqkha-230" value="" style="endArrow=none;html=1;rounded=0;fillColor=#e51400;strokeColor=#B20000;" edge="1" parent="1">
          <mxGeometry width="50" height="50" relative="1" as="geometry">
            <mxPoint x="353" y="250" as="sourcePoint" />
            <mxPoint x="353" y="280" as="targetPoint" />
          </mxGeometry>
        </mxCell>
        <mxCell id="yCNXlP83xQap65_kqkha-231" style="rounded=0;orthogonalLoop=1;jettySize=auto;html=1;shape=link;width=-1.71875;fillColor=#e51400;strokeColor=#B20000;" edge="1" parent="1" source="yCNXlP83xQap65_kqkha-232">
          <mxGeometry relative="1" as="geometry">
            <mxPoint x="343.00000000000006" y="256.015" as="targetPoint" />
            <mxPoint x="353.00000000000006" y="256.036875" as="sourcePoint" />
          </mxGeometry>
        </mxCell>
        <mxCell id="yCNXlP83xQap65_kqkha-232" value="" style="verticalLabelPosition=bottom;sketch=0;aspect=fixed;html=1;verticalAlign=top;strokeColor=none;align=center;outlineConnect=0;shape=mxgraph.citrix.chassis;flipV=0;flipH=0;" vertex="1" parent="1">
          <mxGeometry x="363" y="230" width="40.71" height="52.55" as="geometry" />
        </mxCell>
        <mxCell id="yCNXlP83xQap65_kqkha-233" value="" style="endArrow=none;html=1;rounded=0;fillColor=#b1ddf0;strokeColor=#10739e;" edge="1" parent="1">
          <mxGeometry width="50" height="50" relative="1" as="geometry">
            <mxPoint x="413" y="440" as="sourcePoint" />
            <mxPoint x="413" y="250" as="targetPoint" />
          </mxGeometry>
        </mxCell>
        <mxCell id="yCNXlP83xQap65_kqkha-234" value="" style="endArrow=none;html=1;rounded=0;fillColor=#b1ddf0;strokeColor=#10739e;shape=link;width=-1.7741935483870979;" edge="1" parent="1" source="yCNXlP83xQap65_kqkha-228">
          <mxGeometry width="50" height="50" relative="1" as="geometry">
            <mxPoint x="423" y="320" as="sourcePoint" />
            <mxPoint x="413" y="316" as="targetPoint" />
          </mxGeometry>
        </mxCell>
        <mxCell id="yCNXlP83xQap65_kqkha-235" value="" style="endArrow=none;html=1;rounded=0;fillColor=#b1ddf0;strokeColor=#10739e;shape=link;width=-1.7741935483870979;" edge="1" parent="1">
          <mxGeometry width="50" height="50" relative="1" as="geometry">
            <mxPoint x="403.71" y="376.19" as="sourcePoint" />
            <mxPoint x="412.71" y="376.19" as="targetPoint" />
          </mxGeometry>
        </mxCell>
        <mxCell id="yCNXlP83xQap65_kqkha-236" value="" style="endArrow=none;html=1;rounded=0;fillColor=#b1ddf0;strokeColor=#10739e;shape=link;width=-1.7741935483870979;" edge="1" parent="1">
          <mxGeometry width="50" height="50" relative="1" as="geometry">
            <mxPoint x="403.71" y="256.19" as="sourcePoint" />
            <mxPoint x="412.71" y="256.19" as="targetPoint" />
          </mxGeometry>
        </mxCell>
        <mxCell id="yCNXlP83xQap65_kqkha-237" value="" style="endArrow=none;html=1;rounded=0;fillColor=#b1ddf0;strokeColor=#10739e;shape=link;width=-1.7741935483870979;" edge="1" parent="1">
          <mxGeometry width="50" height="50" relative="1" as="geometry">
            <mxPoint x="403.71" y="436.04" as="sourcePoint" />
            <mxPoint x="412.71" y="436.04" as="targetPoint" />
          </mxGeometry>
        </mxCell>
        <mxCell id="yCNXlP83xQap65_kqkha-238" value="" style="endArrow=none;html=1;rounded=0;fillColor=#b1ddf0;strokeColor=#10739e;shape=link;width=-1.7741935483870979;" edge="1" parent="1">
          <mxGeometry width="50" height="50" relative="1" as="geometry">
            <mxPoint x="293" y="436" as="sourcePoint" />
            <mxPoint x="303" y="436.22" as="targetPoint" />
          </mxGeometry>
        </mxCell>
        <mxCell id="yCNXlP83xQap65_kqkha-239" value="" style="endArrow=none;html=1;rounded=0;fillColor=#b1ddf0;strokeColor=#10739e;shape=link;width=-1.7741935483870979;" edge="1" parent="1">
          <mxGeometry width="50" height="50" relative="1" as="geometry">
            <mxPoint x="293" y="376" as="sourcePoint" />
            <mxPoint x="303" y="376.04" as="targetPoint" />
          </mxGeometry>
        </mxCell>
        <mxCell id="yCNXlP83xQap65_kqkha-240" value="" style="endArrow=none;html=1;rounded=0;fillColor=#b1ddf0;strokeColor=#10739e;shape=link;width=-1.7741935483870979;" edge="1" parent="1">
          <mxGeometry width="50" height="50" relative="1" as="geometry">
            <mxPoint x="293" y="316" as="sourcePoint" />
            <mxPoint x="303" y="316.04" as="targetPoint" />
          </mxGeometry>
        </mxCell>
        <mxCell id="yCNXlP83xQap65_kqkha-241" value="" style="endArrow=none;html=1;rounded=0;fillColor=#b1ddf0;strokeColor=#10739e;shape=link;width=-1.7741935483870979;" edge="1" parent="1">
          <mxGeometry width="50" height="50" relative="1" as="geometry">
            <mxPoint x="293" y="256" as="sourcePoint" />
            <mxPoint x="303" y="256.03999999999996" as="targetPoint" />
          </mxGeometry>
        </mxCell>
        <mxCell id="yCNXlP83xQap65_kqkha-242" value="" style="endArrow=none;html=1;rounded=0;fillColor=#b1ddf0;strokeColor=#10739e;" edge="1" parent="1">
          <mxGeometry width="50" height="50" relative="1" as="geometry">
            <mxPoint x="293" y="440" as="sourcePoint" />
            <mxPoint x="293" y="250" as="targetPoint" />
          </mxGeometry>
        </mxCell>
        <mxCell id="yCNXlP83xQap65_kqkha-243" value="" style="verticalLabelPosition=bottom;sketch=0;aspect=fixed;html=1;verticalAlign=top;strokeColor=none;align=center;outlineConnect=0;shape=mxgraph.citrix.chassis;flipV=0;flipH=1;" vertex="1" parent="1">
          <mxGeometry x="20" y="410" width="40.71" height="52.55" as="geometry" />
        </mxCell>
        <mxCell id="yCNXlP83xQap65_kqkha-244" value="" style="endArrow=none;html=1;rounded=0;fillColor=#e51400;strokeColor=#B20000;" edge="1" parent="1">
          <mxGeometry width="50" height="50" relative="1" as="geometry">
            <mxPoint x="70" y="400" as="sourcePoint" />
            <mxPoint x="70" y="440" as="targetPoint" />
          </mxGeometry>
        </mxCell>
        <mxCell id="yCNXlP83xQap65_kqkha-245" style="rounded=0;orthogonalLoop=1;jettySize=auto;html=1;shape=link;width=-1.71875;fillColor=#e51400;strokeColor=#B20000;" edge="1" parent="1" source="yCNXlP83xQap65_kqkha-246">
          <mxGeometry relative="1" as="geometry">
            <mxPoint x="60.00000000000006" y="436.015" as="targetPoint" />
            <mxPoint x="70.00000000000006" y="436.036875" as="sourcePoint" />
          </mxGeometry>
        </mxCell>
        <mxCell id="yCNXlP83xQap65_kqkha-246" value="" style="verticalLabelPosition=bottom;sketch=0;aspect=fixed;html=1;verticalAlign=top;strokeColor=none;align=center;outlineConnect=0;shape=mxgraph.citrix.chassis;flipV=0;flipH=0;" vertex="1" parent="1">
          <mxGeometry x="80" y="410" width="40.71" height="52.55" as="geometry" />
        </mxCell>
        <mxCell id="yCNXlP83xQap65_kqkha-247" value="" style="verticalLabelPosition=bottom;sketch=0;aspect=fixed;html=1;verticalAlign=top;strokeColor=none;align=center;outlineConnect=0;shape=mxgraph.citrix.chassis;flipV=0;flipH=1;" vertex="1" parent="1">
          <mxGeometry x="20" y="350" width="40.71" height="52.55" as="geometry" />
        </mxCell>
        <mxCell id="yCNXlP83xQap65_kqkha-248" value="" style="endArrow=none;html=1;rounded=0;fillColor=#e51400;strokeColor=#B20000;" edge="1" parent="1">
          <mxGeometry width="50" height="50" relative="1" as="geometry">
            <mxPoint x="70" y="340" as="sourcePoint" />
            <mxPoint x="70" y="400" as="targetPoint" />
          </mxGeometry>
        </mxCell>
        <mxCell id="yCNXlP83xQap65_kqkha-249" style="rounded=0;orthogonalLoop=1;jettySize=auto;html=1;shape=link;width=-1.71875;fillColor=#e51400;strokeColor=#B20000;" edge="1" parent="1" source="yCNXlP83xQap65_kqkha-250">
          <mxGeometry relative="1" as="geometry">
            <mxPoint x="60.00000000000006" y="376.015" as="targetPoint" />
            <mxPoint x="70.00000000000006" y="376.036875" as="sourcePoint" />
          </mxGeometry>
        </mxCell>
        <mxCell id="yCNXlP83xQap65_kqkha-250" value="" style="verticalLabelPosition=bottom;sketch=0;aspect=fixed;html=1;verticalAlign=top;strokeColor=none;align=center;outlineConnect=0;shape=mxgraph.citrix.chassis;flipV=0;flipH=0;" vertex="1" parent="1">
          <mxGeometry x="80" y="350" width="40.71" height="52.55" as="geometry" />
        </mxCell>
        <mxCell id="yCNXlP83xQap65_kqkha-251" value="" style="verticalLabelPosition=bottom;sketch=0;aspect=fixed;html=1;verticalAlign=top;strokeColor=none;align=center;outlineConnect=0;shape=mxgraph.citrix.chassis;flipV=0;flipH=1;" vertex="1" parent="1">
          <mxGeometry x="20" y="290" width="40.71" height="52.55" as="geometry" />
        </mxCell>
        <mxCell id="yCNXlP83xQap65_kqkha-252" value="" style="endArrow=none;html=1;rounded=0;fillColor=#e51400;strokeColor=#B20000;" edge="1" parent="1">
          <mxGeometry width="50" height="50" relative="1" as="geometry">
            <mxPoint x="70" y="280" as="sourcePoint" />
            <mxPoint x="70" y="340" as="targetPoint" />
          </mxGeometry>
        </mxCell>
        <mxCell id="yCNXlP83xQap65_kqkha-253" style="rounded=0;orthogonalLoop=1;jettySize=auto;html=1;shape=link;width=-1.71875;fillColor=#e51400;strokeColor=#B20000;" edge="1" parent="1" source="yCNXlP83xQap65_kqkha-254">
          <mxGeometry relative="1" as="geometry">
            <mxPoint x="60.00000000000006" y="316.015" as="targetPoint" />
            <mxPoint x="70.00000000000006" y="316.036875" as="sourcePoint" />
          </mxGeometry>
        </mxCell>
        <mxCell id="yCNXlP83xQap65_kqkha-254" value="" style="verticalLabelPosition=bottom;sketch=0;aspect=fixed;html=1;verticalAlign=top;strokeColor=none;align=center;outlineConnect=0;shape=mxgraph.citrix.chassis;flipV=0;flipH=0;" vertex="1" parent="1">
          <mxGeometry x="80" y="290" width="40.71" height="52.55" as="geometry" />
        </mxCell>
        <mxCell id="yCNXlP83xQap65_kqkha-255" value="" style="verticalLabelPosition=bottom;sketch=0;aspect=fixed;html=1;verticalAlign=top;strokeColor=none;align=center;outlineConnect=0;shape=mxgraph.citrix.chassis;flipV=0;flipH=1;" vertex="1" parent="1">
          <mxGeometry x="20" y="230" width="40.71" height="52.55" as="geometry" />
        </mxCell>
        <mxCell id="yCNXlP83xQap65_kqkha-256" value="" style="endArrow=none;html=1;rounded=0;fillColor=#e51400;strokeColor=#B20000;" edge="1" parent="1">
          <mxGeometry width="50" height="50" relative="1" as="geometry">
            <mxPoint x="70" y="250" as="sourcePoint" />
            <mxPoint x="70" y="280" as="targetPoint" />
          </mxGeometry>
        </mxCell>
        <mxCell id="yCNXlP83xQap65_kqkha-257" style="rounded=0;orthogonalLoop=1;jettySize=auto;html=1;shape=link;width=-1.71875;fillColor=#e51400;strokeColor=#B20000;" edge="1" parent="1" source="yCNXlP83xQap65_kqkha-258">
          <mxGeometry relative="1" as="geometry">
            <mxPoint x="60.00000000000006" y="256.015" as="targetPoint" />
            <mxPoint x="70.00000000000006" y="256.036875" as="sourcePoint" />
          </mxGeometry>
        </mxCell>
        <mxCell id="yCNXlP83xQap65_kqkha-258" value="" style="verticalLabelPosition=bottom;sketch=0;aspect=fixed;html=1;verticalAlign=top;strokeColor=none;align=center;outlineConnect=0;shape=mxgraph.citrix.chassis;flipV=0;flipH=0;" vertex="1" parent="1">
          <mxGeometry x="80" y="230" width="40.71" height="52.55" as="geometry" />
        </mxCell>
        <mxCell id="yCNXlP83xQap65_kqkha-259" value="" style="endArrow=none;html=1;rounded=0;fillColor=#b1ddf0;strokeColor=#10739e;" edge="1" parent="1">
          <mxGeometry width="50" height="50" relative="1" as="geometry">
            <mxPoint x="130" y="440" as="sourcePoint" />
            <mxPoint x="130" y="250" as="targetPoint" />
          </mxGeometry>
        </mxCell>
        <mxCell id="yCNXlP83xQap65_kqkha-260" value="" style="endArrow=none;html=1;rounded=0;fillColor=#b1ddf0;strokeColor=#10739e;shape=link;width=-1.7741935483870979;" edge="1" parent="1" source="yCNXlP83xQap65_kqkha-254">
          <mxGeometry width="50" height="50" relative="1" as="geometry">
            <mxPoint x="140" y="320" as="sourcePoint" />
            <mxPoint x="130" y="316" as="targetPoint" />
          </mxGeometry>
        </mxCell>
        <mxCell id="yCNXlP83xQap65_kqkha-261" value="" style="endArrow=none;html=1;rounded=0;fillColor=#b1ddf0;strokeColor=#10739e;shape=link;width=-1.7741935483870979;" edge="1" parent="1">
          <mxGeometry width="50" height="50" relative="1" as="geometry">
            <mxPoint x="120.70999999999998" y="376.19" as="sourcePoint" />
            <mxPoint x="129.70999999999998" y="376.19" as="targetPoint" />
          </mxGeometry>
        </mxCell>
        <mxCell id="yCNXlP83xQap65_kqkha-262" value="" style="endArrow=none;html=1;rounded=0;fillColor=#b1ddf0;strokeColor=#10739e;shape=link;width=-1.7741935483870979;" edge="1" parent="1">
          <mxGeometry width="50" height="50" relative="1" as="geometry">
            <mxPoint x="120.70999999999998" y="256.19" as="sourcePoint" />
            <mxPoint x="129.70999999999998" y="256.19" as="targetPoint" />
          </mxGeometry>
        </mxCell>
        <mxCell id="yCNXlP83xQap65_kqkha-263" value="" style="endArrow=none;html=1;rounded=0;fillColor=#b1ddf0;strokeColor=#10739e;shape=link;width=-1.7741935483870979;" edge="1" parent="1">
          <mxGeometry width="50" height="50" relative="1" as="geometry">
            <mxPoint x="120.70999999999998" y="436.04" as="sourcePoint" />
            <mxPoint x="129.70999999999998" y="436.04" as="targetPoint" />
          </mxGeometry>
        </mxCell>
        <mxCell id="yCNXlP83xQap65_kqkha-264" value="" style="endArrow=none;html=1;rounded=0;fillColor=#b1ddf0;strokeColor=#10739e;shape=link;width=-1.7741935483870979;" edge="1" parent="1">
          <mxGeometry width="50" height="50" relative="1" as="geometry">
            <mxPoint x="10" y="436" as="sourcePoint" />
            <mxPoint x="20" y="436.22" as="targetPoint" />
          </mxGeometry>
        </mxCell>
        <mxCell id="yCNXlP83xQap65_kqkha-265" value="" style="endArrow=none;html=1;rounded=0;fillColor=#b1ddf0;strokeColor=#10739e;shape=link;width=-1.7741935483870979;" edge="1" parent="1">
          <mxGeometry width="50" height="50" relative="1" as="geometry">
            <mxPoint x="10" y="376" as="sourcePoint" />
            <mxPoint x="20" y="376.04" as="targetPoint" />
          </mxGeometry>
        </mxCell>
        <mxCell id="yCNXlP83xQap65_kqkha-266" value="" style="endArrow=none;html=1;rounded=0;fillColor=#b1ddf0;strokeColor=#10739e;shape=link;width=-1.7741935483870979;" edge="1" parent="1">
          <mxGeometry width="50" height="50" relative="1" as="geometry">
            <mxPoint x="10" y="316" as="sourcePoint" />
            <mxPoint x="20" y="316.04" as="targetPoint" />
          </mxGeometry>
        </mxCell>
        <mxCell id="yCNXlP83xQap65_kqkha-267" value="" style="endArrow=none;html=1;rounded=0;fillColor=#b1ddf0;strokeColor=#10739e;shape=link;width=-1.7741935483870979;" edge="1" parent="1">
          <mxGeometry width="50" height="50" relative="1" as="geometry">
            <mxPoint x="10" y="256" as="sourcePoint" />
            <mxPoint x="20" y="256.03999999999996" as="targetPoint" />
          </mxGeometry>
        </mxCell>
        <mxCell id="yCNXlP83xQap65_kqkha-268" value="" style="endArrow=none;html=1;rounded=0;fillColor=#b1ddf0;strokeColor=#10739e;" edge="1" parent="1">
          <mxGeometry width="50" height="50" relative="1" as="geometry">
            <mxPoint x="10" y="440" as="sourcePoint" />
            <mxPoint x="10" y="250" as="targetPoint" />
          </mxGeometry>
        </mxCell>
      </root>
    </mxGraphModel>
  </diagram>
</mxfile>
